<!-- Synapse construction 120px | Pentagram -->
<svg xmlns="http://www.w3.org/2000/svg" width="120" height="120" viewBox="0 0 64 64">
  <line x1="0.0" y1="0" x2="0.0" y2="64" stroke="#00D4FF" stroke-width="0.2" stroke-linecap="round" opacity="0.08"/>
  <line x1="5.333333333333333" y1="0" x2="5.333333333333333" y2="64" stroke="#00D4FF" stroke-width="0.2" stroke-linecap="round" opacity="0.08"/>
  <line x1="10.666666666666666" y1="0" x2="10.666666666666666" y2="64" stroke="#00D4FF" stroke-width="0.2" stroke-linecap="round" opacity="0.08"/>
  <line x1="16.0" y1="0" x2="16.0" y2="64" stroke="#00D4FF" stroke-width="0.2" stroke-linecap="round" opacity="0.08"/>
  <line x1="21.333333333333332" y1="0" x2="21.333333333333332" y2="64" stroke="#00D4FF" stroke-width="0.2" stroke-linecap="round" opacity="0.08"/>
  <line x1="26.666666666666664" y1="0" x2="26.666666666666664" y2="64" stroke="#00D4FF" stroke-width="0.2" stroke-linecap="round" opacity="0.08"/>
  <line x1="32.0" y1="0" x2="32.0" y2="64" stroke="#00D4FF" stroke-width="0.2" stroke-linecap="round" opacity="0.08"/>
  <line x1="37.33333333333333" y1="0" x2="37.33333333333333" y2="64" stroke="#00D4FF" stroke-width="0.2" stroke-linecap="round" opacity="0.08"/>
  <line x1="42.666666666666664" y1="0" x2="42.666666666666664" y2="64" stroke="#00D4FF" stroke-width="0.2" stroke-linecap="round" opacity="0.08"/>
  <line x1="48.0" y1="0" x2="48.0" y2="64" stroke="#00D4FF" stroke-width="0.2" stroke-linecap="round" opacity="0.08"/>
  <line x1="53.33333333333333" y1="0" x2="53.33333333333333" y2="64" stroke="#00D4FF" stroke-width="0.2" stroke-linecap="round" opacity="0.08"/>
  <line x1="58.666666666666664" y1="0" x2="58.666666666666664" y2="64" stroke="#00D4FF" stroke-width="0.2" stroke-linecap="round" opacity="0.08"/>
  <line x1="64.0" y1="0" x2="64.0" y2="64" stroke="#00D4FF" stroke-width="0.2" stroke-linecap="round" opacity="0.08"/>
  <line x1="0" y1="0.0" x2="64" y2="0.0" stroke="#00D4FF" stroke-width="0.2" stroke-linecap="round" opacity="0.08"/>
  <line x1="0" y1="5.333333333333333" x2="64" y2="5.333333333333333" stroke="#00D4FF" stroke-width="0.2" stroke-linecap="round" opacity="0.08"/>
  <line x1="0" y1="10.666666666666666" x2="64" y2="10.666666666666666" stroke="#00D4FF" stroke-width="0.2" stroke-linecap="round" opacity="0.08"/>
  <line x1="0" y1="16.0" x2="64" y2="16.0" stroke="#00D4FF" stroke-width="0.2" stroke-linecap="round" opacity="0.08"/>
  <line x1="0" y1="21.333333333333332" x2="64" y2="21.333333333333332" stroke="#00D4FF" stroke-width="0.2" stroke-linecap="round" opacity="0.08"/>
  <line x1="0" y1="26.666666666666664" x2="64" y2="26.666666666666664" stroke="#00D4FF" stroke-width="0.2" stroke-linecap="round" opacity="0.08"/>
  <line x1="0" y1="32.0" x2="64" y2="32.0" stroke="#00D4FF" stroke-width="0.2" stroke-linecap="round" opacity="0.08"/>
  <line x1="0" y1="37.33333333333333" x2="64" y2="37.33333333333333" stroke="#00D4FF" stroke-width="0.2" stroke-linecap="round" opacity="0.08"/>
  <line x1="0" y1="42.666666666666664" x2="64" y2="42.666666666666664" stroke="#00D4FF" stroke-width="0.2" stroke-linecap="round" opacity="0.08"/>
  <line x1="0" y1="48.0" x2="64" y2="48.0" stroke="#00D4FF" stroke-width="0.2" stroke-linecap="round" opacity="0.08"/>
  <line x1="0" y1="53.33333333333333" x2="64" y2="53.33333333333333" stroke="#00D4FF" stroke-width="0.2" stroke-linecap="round" opacity="0.08"/>
  <line x1="0" y1="58.666666666666664" x2="64" y2="58.666666666666664" stroke="#00D4FF" stroke-width="0.2" stroke-linecap="round" opacity="0.08"/>
  <line x1="0" y1="64.0" x2="64" y2="64.0" stroke="#00D4FF" stroke-width="0.2" stroke-linecap="round" opacity="0.08"/>
  <path d="M22 24 C22 18, 28 15, 32 15 C38 15, 42 19, 42 24 C42 30, 36 32, 32 33.5 C28 35, 22 37, 22 42 C22 48, 28 51, 32 51 C36 51, 42 47, 42 42" stroke="#00D4FF" stroke-width="2.0" fill="none" stroke-linecap="round" stroke-linejoin="round" opacity="0.4"/>
  <circle cx="22" cy="24" r="4" fill="none"/>
  <circle cx="22" cy="24" r="4" fill="none" stroke="#00D4FF" stroke-width="0.5" opacity="0.6" stroke-dasharray="2 2"/>
  <circle cx="42" cy="42" r="4" fill="none" stroke="#00D4FF" stroke-width="0.5" opacity="0.6" stroke-dasharray="2 2"/>
  <text x="4" y="62" font-size="3" fill="#00D4FF" opacity="0.4" font-family="monospace">SYNAPSE CONSTRUCTION</text>
</svg>
